<?xml version="1.0" standalone="no"?>
<!DOCTYPE svg PUBLIC "-//W3C//DTD SVG 20010904//EN"
 "http://www.w3.org/TR/2001/REC-SVG-20010904/DTD/svg10.dtd">
<svg version="1.0" xmlns="http://www.w3.org/2000/svg"
 width="524.000000pt" height="470.000000pt" viewBox="0 0 524.000000 470.000000"
 preserveAspectRatio="xMidYMid meet">

<g transform="translate(0.000000,470.000000) scale(0.100000,-0.100000)"
fill="#000000" stroke="none">
<path d="M1735 4671 c-51 -24 -82 -47 -73 -56 3 -3 24 3 47 14 22 12 52 21 67
21 83 0 197 -104 337 -309 51 -74 105 -144 120 -155 26 -19 47 -21 265 -27
329 -9 479 -36 712 -127 92 -36 128 -45 180 -46 82 -1 110 12 224 109 126 105
161 119 249 94 54 -15 107 3 107 37 0 32 -35 53 -112 66 -56 10 -72 9 -133
-10 -56 -17 -88 -36 -165 -98 -139 -112 -145 -113 -307 -55 -203 73 -357 93
-713 95 l-265 1 -73 110 c-103 155 -176 247 -233 290 -86 66 -161 80 -234 46z"/>
<path d="M1548 4567 c-172 -63 -323 -237 -368 -426 -27 -116 7 -301 74 -395
57 -81 94 -100 196 -104 152 -6 277 53 408 193 116 124 182 275 182 415 0 108
-21 163 -89 231 -71 70 -143 100 -256 106 -66 3 -92 0 -147 -20z m212 -70
c118 -58 136 -275 39 -474 -43 -89 -117 -166 -197 -205 -59 -29 -75 -33 -153
-33 -108 0 -130 13 -176 105 -63 127 -62 248 3 378 106 208 319 309 484 229z"/>
<path d="M1479 4432 c-57 -37 -95 -82 -130 -157 -27 -58 -51 -174 -44 -212 14
-70 16 -73 37 -73 33 0 128 105 166 182 36 74 62 172 62 241 0 42 -2 47 -23
47 -13 0 -43 -13 -68 -28z"/>
<path d="M3795 4156 c-67 -21 -100 -43 -148 -96 -77 -86 -110 -199 -110 -375
0 -104 3 -130 27 -198 49 -145 124 -234 245 -290 56 -27 77 -31 141 -31 204 2
336 168 356 449 19 258 -142 497 -364 544 -66 14 -96 13 -147 -3z m258 -83
c160 -88 237 -284 193 -494 -49 -231 -230 -332 -395 -221 -145 98 -201 370
-120 587 25 67 90 139 141 154 48 15 126 3 181 -26z"/>
<path d="M4041 3949 c-38 -110 -13 -479 33 -479 34 0 88 95 106 188 15 73 5
134 -34 217 -24 51 -67 105 -85 105 -5 0 -14 -14 -20 -31z"/>
<path d="M1202 3672 c-183 -98 -220 -387 -79 -619 49 -80 79 -107 112 -99 37
9 53 49 31 78 -90 124 -125 208 -133 318 -10 133 35 238 118 280 48 25 55 60
11 60 -15 0 -42 -8 -60 -18z"/>
<path d="M4811 3575 c-136 -178 -329 -328 -550 -426 -84 -37 -85 -38 -99 -18
-8 12 -23 19 -35 17 -18 -2 -22 -10 -22 -37 0 -34 -1 -34 -85 -63 -258 -88
-507 -128 -842 -135 -450 -10 -636 23 -1001 178 -253 108 -532 258 -753 405
-61 40 -123 79 -138 85 -53 25 -99 -26 -76 -85 41 -108 597 -392 1059 -540
454 -146 950 -163 1461 -50 91 20 329 93 397 120 8 4 26 -23 49 -73 41 -88 41
-126 5 -224 -35 -92 -35 -92 -117 -75 -267 56 -672 44 -980 -29 -309 -73 -534
-212 -534 -329 0 -42 26 -82 80 -125 154 -122 355 -145 504 -57 86 50 126 123
111 202 -12 67 -135 163 -135 106 0 -10 16 -33 35 -52 50 -48 49 -95 -2 -152
-103 -114 -294 -120 -421 -14 -66 56 -32 126 106 216 165 109 523 180 896 180
132 0 360 -21 373 -34 3 -2 0 -14 -7 -26 -14 -26 -5 -57 21 -71 28 -15 55 -3
79 36 21 34 21 34 59 20 120 -42 228 -117 296 -205 33 -43 53 -60 70 -60 54 0
37 53 -46 145 -75 81 -192 156 -311 198 -15 5 -15 11 4 69 11 36 21 93 21 133
1 64 -3 80 -41 159 -23 49 -41 90 -40 91 2 2 47 25 100 53 212 110 410 268
543 435 62 78 82 127 51 127 -7 0 -46 -43 -85 -95z"/>
<path d="M802 2949 c-77 -10 -186 -45 -202 -64 -21 -25 13 -28 82 -7 173 53
269 32 438 -94 125 -93 135 -96 305 -105 171 -8 240 -27 292 -81 47 -51 61
-87 84 -220 29 -174 36 -202 82 -302 47 -104 53 -160 21 -203 -29 -41 -104
-75 -167 -77 -72 -1 -114 18 -138 65 -32 63 -57 47 -38 -23 15 -56 72 -113
129 -128 90 -24 201 5 269 72 52 51 65 85 66 163 0 62 -5 81 -44 163 -33 72
-48 123 -67 225 -39 212 -58 267 -116 332 -64 74 -159 104 -348 111 -74 3
-148 10 -165 17 -16 6 -68 34 -114 64 -131 82 -239 109 -369 92z"/>
<path d="M1492 2443 c-18 -35 -81 -319 -92 -416 -13 -108 -9 -157 26 -331 13
-65 24 -152 24 -192 0 -64 -3 -76 -26 -104 -52 -61 -157 -94 -228 -70 -20 6
-52 28 -71 47 -76 78 -84 202 -21 341 63 138 69 227 25 354 l-20 58 20 28 c11
16 45 50 76 76 55 48 67 72 41 82 -53 20 -228 -166 -290 -309 -32 -72 -43
-122 -60 -273 -17 -142 -36 -206 -80 -261 -65 -81 -185 -84 -276 -5 -52 44
-72 84 -72 142 0 54 16 90 66 145 42 45 44 57 15 86 -27 27 -54 18 -101 -33
-73 -78 -101 -251 -57 -348 27 -59 44 -77 104 -108 41 -21 68 -27 146 -30 146
-6 220 25 280 118 l33 51 13 -53 c8 -29 25 -70 39 -91 96 -146 379 -155 498
-16 70 82 69 175 -1 364 l-38 100 1 175 c0 155 3 190 28 305 16 72 29 141 30
154 1 30 -19 39 -32 14z m-442 -507 c0 -54 -34 -204 -51 -221 -11 -11 -11 -16
1 108 10 107 28 179 41 171 5 -3 9 -29 9 -58z"/>
<path d="M4043 2399 c-90 -45 -146 -162 -172 -364 -6 -44 -15 -189 -20 -322
-8 -218 -11 -246 -31 -287 -63 -131 -246 -175 -329 -81 -38 43 -46 81 -26 128
10 24 15 68 15 129 0 146 17 254 50 327 31 65 38 105 20 116 -22 14 -49 -19
-92 -112 -49 -103 -78 -217 -78 -305 0 -105 -57 -215 -130 -253 -72 -37 -222
1 -255 66 -36 69 -15 144 85 299 76 118 150 262 150 292 0 10 -7 21 -15 25
-17 6 -55 -23 -55 -42 0 -14 -90 -144 -112 -162 -12 -10 -71 -10 -284 2 -148
8 -304 15 -347 15 -71 0 -78 -2 -86 -22 -11 -29 -3 -56 18 -62 9 -3 154 -8
322 -12 l306 -6 -34 -52 c-37 -56 -73 -160 -73 -210 0 -63 21 -110 70 -157 62
-60 128 -84 235 -83 83 0 126 14 172 56 l22 21 26 -31 c92 -110 340 -80 474
57 71 72 91 122 104 250 l11 108 200 6 c111 4 301 7 423 7 152 0 224 4 229 11
3 6 1 14 -5 18 -6 4 -172 13 -369 20 -196 6 -385 14 -419 17 l-63 6 0 97 c1
216 29 359 85 419 28 31 41 37 86 42 46 4 54 8 54 25 0 30 -104 33 -162 4z"/>
<path d="M2890 945 c0 -63 -2 -115 -4 -115 -2 0 -25 12 -51 27 -68 38 -177 44
-257 13 -218 -82 -215 -421 5 -505 33 -13 66 -16 125 -14 68 4 86 8 131 37 29
17 54 32 57 32 2 0 4 -13 4 -30 0 -30 1 -30 55 -30 l55 0 0 350 0 350 -60 0
-60 0 0 -115z m-52 -185 l52 -30 0 -110 0 -110 -52 -30 c-123 -70 -251 -38
-293 75 -20 52 -14 115 15 160 53 80 179 101 278 45z"/>
<path d="M4340 945 l0 -85 -45 0 -45 0 0 -50 0 -50 45 0 45 0 0 -156 c0 -234
18 -257 197 -252 l98 3 3 49 3 48 -56 -7 c-72 -9 -110 6 -124 47 -6 17 -11 84
-11 149 l0 119 95 0 95 0 0 50 0 50 -95 0 -95 0 0 85 0 85 -55 0 -55 0 0 -85z"/>
<path d="M178 875 c-54 -18 -110 -68 -126 -114 l-11 -31 59 0 c50 0 61 3 70
21 26 48 161 66 230 31 27 -13 36 -24 38 -48 l3 -31 -84 -6 c-91 -6 -192 -29
-242 -54 -139 -70 -133 -236 11 -283 60 -20 189 -8 253 23 58 28 71 27 71 -4
0 -17 7 -19 58 -19 l57 0 -3 202 c-3 239 -9 257 -87 298 -41 21 -65 25 -149
27 -69 2 -116 -2 -148 -12z m260 -317 l-3 -63 -46 -23 c-25 -12 -74 -28 -108
-34 -52 -10 -66 -9 -96 5 -61 29 -58 100 6 132 37 20 146 43 207 44 l43 1 -3
-62z"/>
<path d="M793 871 c-110 -38 -174 -123 -176 -234 -4 -183 102 -287 292 -287
125 0 199 35 252 118 42 66 39 72 -31 72 -33 0 -60 -4 -60 -9 0 -22 -66 -70
-111 -81 -71 -17 -125 -5 -170 39 -65 61 -76 158 -26 231 63 93 233 96 293 5
14 -22 23 -25 70 -25 45 0 54 3 54 18 0 30 -44 95 -79 119 -78 53 -212 68
-308 34z"/>
<path d="M1997 876 c-64 -24 -115 -63 -144 -113 -25 -44 -28 -57 -28 -144 0
-89 2 -99 30 -144 57 -93 140 -129 277 -124 65 3 94 10 133 30 45 23 115 96
115 120 0 5 -29 9 -63 9 -52 0 -67 -4 -83 -21 -47 -52 -147 -66 -214 -30 -41
21 -80 74 -80 107 l0 24 226 0 227 0 -6 54 c-10 102 -59 176 -142 218 -52 27
-193 35 -248 14z m186 -90 c38 -16 62 -40 76 -79 l11 -27 -165 0 c-91 0 -165
4 -165 9 0 21 49 78 80 93 42 21 118 23 163 4z"/>
<path d="M3848 873 c-104 -35 -178 -136 -178 -244 0 -131 65 -232 171 -263 82
-25 203 -21 265 8 53 25 116 90 133 137 l10 29 -65 0 c-48 0 -64 -3 -64 -14 0
-8 -14 -26 -30 -40 -81 -68 -213 -56 -271 25 -36 50 -39 151 -7 199 13 19 39
45 58 58 30 20 45 23 105 20 74 -3 112 -22 136 -65 11 -20 21 -23 71 -23 57 0
59 1 52 23 -33 108 -130 168 -273 166 -36 0 -87 -7 -113 -16z"/>
<path d="M4820 871 c-225 -80 -226 -431 -1 -506 73 -24 219 -18 276 12 82 43
126 113 133 213 8 121 -37 215 -129 265 -72 39 -195 46 -279 16z m218 -101
c49 -30 72 -75 72 -143 0 -32 -6 -72 -14 -90 -53 -124 -251 -127 -306 -4 -41
90 -13 203 60 239 49 25 145 24 188 -2z"/>
<path d="M1252 661 c3 -193 5 -212 24 -237 44 -60 67 -69 174 -69 95 0 100 1
144 33 26 17 49 32 51 32 3 0 5 -13 5 -30 0 -30 1 -30 55 -30 l55 0 0 255 0
255 -55 0 -55 0 0 -174 0 -174 -35 -30 c-55 -49 -128 -64 -190 -38 -54 23 -59
42 -63 239 l-4 177 -55 0 -54 0 3 -209z"/>
<path d="M3102 673 c3 -227 13 -259 84 -301 34 -20 50 -22 125 -20 77 3 91 6
137 35 l52 32 0 -29 c0 -30 0 -30 60 -30 l60 0 0 255 0 255 -60 0 -60 0 0
-176 0 -176 -30 -28 c-35 -32 -115 -55 -164 -46 -18 4 -44 18 -57 32 -23 25
-24 31 -27 210 l-3 184 -60 0 -61 0 4 -197z"/>
<path d="M5130 185 c-10 -12 -9 -15 8 -15 11 0 25 7 32 15 10 12 9 15 -8 15
-11 0 -25 -7 -32 -15z"/>
<path d="M40 99 c-30 -57 -34 -95 -6 -56 18 24 91 24 105 0 5 -10 12 -15 16
-11 10 9 -54 128 -69 128 -7 0 -28 -27 -46 -61z m65 11 l16 -30 -31 0 c-16 0
-30 2 -30 5 0 7 23 55 26 55 2 0 10 -13 19 -30z"/>
<path d="M196 138 c-43 -62 10 -127 90 -112 31 6 34 10 34 40 0 31 -3 34 -30
34 -16 0 -30 -4 -30 -10 0 -5 12 -10 26 -10 19 0 25 -5 22 -17 -5 -27 -69 -30
-92 -4 -40 44 15 110 69 81 26 -14 42 -9 30 9 -3 6 -28 11 -55 11 -39 0 -52
-4 -64 -22z"/>
<path d="M371 104 c-1 -59 0 -62 28 -74 24 -9 35 -9 58 2 25 12 28 19 31 71 2
35 -1 57 -8 57 -5 0 -10 -21 -10 -48 0 -53 -12 -72 -46 -72 -29 0 -37 14 -45
75 l-6 50 -2 -61z"/>
<path d="M542 99 c-19 -33 -31 -64 -27 -67 4 -4 12 1 19 11 17 22 94 24 102 2
4 -8 12 -15 19 -15 8 0 0 24 -22 65 -19 36 -40 65 -46 65 -7 0 -27 -28 -45
-61z m63 11 l16 -30 -31 0 c-16 0 -30 2 -30 5 0 7 23 55 26 55 2 0 10 -13 19
-30z"/>
<path d="M868 138 c-8 -13 -25 -42 -37 -66 -17 -33 -18 -42 -7 -42 8 0 16 7
20 15 8 21 96 21 96 0 0 -8 7 -15 15 -15 11 0 7 15 -17 65 -18 36 -38 65 -44
65 -6 0 -18 -10 -26 -22z m52 -50 c0 -5 -14 -8 -30 -8 l-31 0 17 32 16 32 14
-25 c7 -13 13 -27 14 -31z"/>
<path d="M1000 95 l0 -65 48 2 c43 1 44 2 10 5 l-38 4 0 60 c0 33 -4 59 -10
59 -6 0 -10 -28 -10 -65z"/>
<path d="M1137 142 c-21 -23 -22 -71 -3 -97 16 -22 89 -26 109 -6 18 18 -1 25
-28 11 -19 -10 -30 -11 -50 -2 -45 21 -25 102 25 102 10 0 22 -4 25 -10 3 -5
13 -10 22 -10 13 0 13 3 3 15 -18 21 -83 19 -103 -3z"/>
<path d="M1302 95 c-17 -36 -27 -65 -22 -65 6 0 13 7 16 15 8 21 92 21 100 0
4 -8 13 -15 21 -15 19 0 -47 124 -68 128 -9 2 -27 -22 -47 -63z m66 10 c11
-24 10 -25 -18 -25 -33 0 -35 3 -20 31 14 26 25 24 38 -6z"/>
<path d="M1450 95 c0 -76 18 -88 22 -14 l3 50 38 -50 c52 -71 67 -68 67 14 0
37 -4 65 -10 65 -5 0 -10 -25 -10 -57 l0 -56 -41 56 c-54 77 -69 75 -69 -8z"/>
<path d="M1625 151 c29 -6 30 -9 33 -64 4 -75 22 -74 22 2 0 57 1 60 28 64 15
2 -4 4 -43 4 -44 1 -59 -2 -40 -6z"/>
<path d="M1759 99 c-29 -58 -32 -94 -5 -56 18 23 84 23 102 0 7 -10 15 -15 19
-11 10 10 -54 128 -70 128 -8 0 -29 -27 -46 -61z m71 -11 c0 -5 -11 -8 -25 -8
-29 0 -29 0 -13 35 l12 26 13 -23 c7 -13 12 -26 13 -30z"/>
<path d="M1910 96 c0 -37 4 -66 10 -66 6 0 10 14 10 30 0 25 4 30 23 30 28 0
47 -17 47 -42 0 -10 6 -18 14 -18 15 0 11 35 -7 58 -6 8 -6 12 2 12 8 0 11 11
9 28 -3 25 -7 27 -55 30 l-53 3 0 -65z m74 48 c35 -13 11 -44 -35 -44 -14 0
-19 7 -19 25 0 26 19 32 54 19z"/>
<path d="M2060 95 c0 -37 4 -65 10 -65 6 0 10 28 10 65 0 37 -4 65 -10 65 -6
0 -10 -28 -10 -65z"/>
<path d="M2120 95 l0 -65 53 2 c50 1 50 2 10 5 l-43 4 0 60 c0 33 -4 59 -10
59 -6 0 -10 -28 -10 -65z"/>
<path d="M2240 95 l0 -65 53 1 c51 2 51 2 12 8 l-40 6 -3 58 c-4 78 -22 72
-22 -8z"/>
<path d="M2382 95 c-17 -36 -27 -65 -22 -65 6 0 13 7 16 15 8 21 92 21 100 0
4 -8 12 -15 20 -15 10 0 5 18 -18 65 -19 39 -39 65 -48 65 -9 0 -29 -26 -48
-65z m66 10 c11 -24 10 -25 -18 -25 -28 0 -29 1 -18 25 6 14 14 25 18 25 4 0
12 -11 18 -25z"/>
<path d="M2530 95 l0 -65 49 0 c59 0 81 18 81 65 0 47 -22 65 -81 65 l-49 0 0
-65z m84 45 c21 -8 26 -16 26 -44 0 -39 -24 -60 -63 -54 -18 2 -23 11 -25 42
-6 65 7 77 62 56z"/>
<path d="M2706 138 c-32 -45 -10 -101 43 -113 30 -6 69 7 83 29 13 19 8 74 -8
90 -25 25 -99 21 -118 -6z m96 -5 c36 -33 13 -93 -37 -93 -24 0 -55 33 -55 57
0 19 37 53 57 53 9 0 25 -7 35 -17z"/>
<path d="M2959 123 c18 -22 31 -49 31 -65 0 -16 5 -28 10 -28 6 0 10 11 10 25
0 13 14 40 31 60 18 20 28 39 25 43 -4 4 -21 -7 -36 -25 l-29 -32 -21 29 c-12
17 -28 30 -36 30 -11 0 -6 -11 15 -37z"/>
<path d="M3186 98 c-21 -38 -31 -65 -24 -67 6 -2 15 4 20 13 12 22 93 23 102
1 3 -8 10 -15 16 -15 5 0 -5 29 -22 65 -18 36 -38 65 -45 65 -6 0 -28 -28 -47
-62z m74 -10 c0 -5 -14 -8 -30 -8 l-31 0 17 32 16 32 14 -25 c7 -13 13 -27 14
-31z"/>
<path d="M3339 144 c-18 -22 0 -47 40 -55 38 -8 56 -23 47 -38 -11 -17 -57
-13 -72 6 -14 20 -30 12 -21 -11 8 -20 58 -29 91 -16 22 8 27 15 24 37 -2 22
-10 28 -46 37 -45 11 -54 24 -28 41 10 6 23 5 40 -5 27 -14 43 -9 31 9 -10 17
-91 13 -106 -5z"/>
<path d="M3490 95 l0 -65 53 2 c50 1 50 2 10 5 -38 4 -43 7 -43 28 0 20 6 24
38 28 l37 4 -37 1 c-33 2 -38 5 -38 26 0 22 5 25 43 29 40 3 40 4 -10 5 l-53
2 0 -65z"/>
<path d="M3636 138 c-37 -52 -5 -112 59 -112 45 0 75 28 75 69 0 43 -27 65
-78 65 -31 0 -45 -5 -56 -22z m96 -5 c34 -31 11 -93 -35 -93 -27 0 -57 28 -57
53 0 48 56 73 92 40z"/>
<path d="M3870 95 l0 -65 55 0 c47 0 57 3 71 25 19 30 11 81 -16 95 -10 6 -39
10 -64 10 l-46 0 0 -65z m108 28 c17 -24 15 -40 -9 -64 -13 -13 -30 -19 -47
-17 -23 3 -27 8 -30 42 -5 58 3 70 41 62 17 -3 38 -14 45 -23z"/>
<path d="M4040 95 l0 -65 53 1 c51 2 51 2 12 8 -32 5 -41 11 -43 29 -3 20 1
22 40 23 l43 2 -40 6 c-31 5 -40 10 -40 26 0 16 9 21 40 26 39 6 39 6 -12 8
l-53 1 0 -65z"/>
<path d="M4250 95 l0 -65 59 0 c64 0 89 16 75 47 -4 10 -8 32 -8 48 -1 30 -2
30 -63 33 l-63 3 0 -66z m88 28 c2 -8 -6 -13 -22 -13 -17 0 -26 5 -26 16 0 19
41 16 48 -3z m3 -58 c0 -5 -12 -11 -26 -13 -18 -2 -25 1 -25 13 0 12 7 15 25
13 14 -2 26 -7 26 -13z"/>
<path d="M4428 150 c-9 -6 -19 -24 -23 -40 -14 -64 51 -105 121 -75 31 13 34
18 34 54 0 23 -7 46 -16 55 -17 18 -89 21 -116 6z m80 -22 c30 -30 2 -86 -37
-73 -29 9 -36 42 -15 66 20 22 35 24 52 7z"/>
<path d="M4597 142 c-18 -20 -22 -68 -9 -90 12 -18 72 -33 109 -26 30 6 33 10
33 40 0 32 -2 34 -35 34 -38 0 -47 -14 -14 -23 27 -7 15 -27 -15 -27 -29 0
-49 22 -44 51 4 32 33 47 58 31 22 -14 50 -16 50 -4 0 35 -105 46 -133 14z"/>
<path d="M4775 146 c-24 -17 -26 -80 -2 -103 20 -21 102 -22 122 -2 23 24 23
80 -1 103 -19 20 -93 21 -119 2z m83 -18 c30 -30 2 -86 -36 -73 -26 8 -33 39
-15 64 16 24 33 27 51 9z"/>
<path d="M4920 145 c0 -9 9 -15 25 -15 23 0 25 -3 25 -50 0 -43 3 -50 20 -50
17 0 20 7 20 50 0 47 2 50 25 50 16 0 25 6 25 15 0 12 -14 15 -70 15 -56 0
-70 -3 -70 -15z"/>
<path d="M5085 103 c-16 -31 -31 -60 -33 -65 -5 -12 36 -10 43 2 3 6 24 10 45
10 21 0 42 -4 45 -10 7 -11 45 -14 45 -4 0 3 -14 33 -31 65 -26 49 -36 59 -58
59 -21 0 -31 -10 -56 -57z m69 1 c9 -23 8 -24 -14 -24 -22 0 -23 1 -14 24 8
20 20 20 28 0z"/>
<path d="M693 35 c-8 -22 6 -33 17 -15 13 20 12 30 0 30 -6 0 -13 -7 -17 -15z"/>
</g>
</svg>
